<svg xmlns="http://www.w3.org/2000/svg" viewBox="0 0 491.73 882.4"><defs><style>.cls-1{fill:#fff;}</style></defs><title>Ресурс 1</title><g id="Слой_2" data-name="Слой 2"><g id="Capa_1" data-name="Capa 1"><path class="cls-1" d="M397.52,882.4H94.2a11.14,11.14,0,1,1,0-22.29H397.52a11.14,11.14,0,0,1,0,22.29Z"/><path class="cls-1" d="M245.86,882.4a11.14,11.14,0,0,1-11.14-11.14V676.46a11.14,11.14,0,1,1,22.29,0v194.8A11.14,11.14,0,0,1,245.86,882.4Z"/><path class="cls-1" d="M247.38,587.93h-3c-88.93,0-161.29-72.35-161.29-161.29V161.29C83.06,72.35,155.41,0,244.35,0h3c88.93,0,161.29,72.35,161.29,161.29V426.64C408.67,515.58,336.31,587.93,247.38,587.93Zm-3-565.64c-76.65,0-139,62.36-139,139V426.64c0,76.65,62.36,139,139,139h3c76.65,0,139-62.36,139-139V161.29c0-76.65-62.36-139-139-139Z"/><path class="cls-1" d="M247.38,671h-3A244.35,244.35,0,0,1,0,426.64a11.14,11.14,0,1,1,22.29,0A222.06,222.06,0,0,0,244.35,648.7h3A222.06,222.06,0,0,0,469.44,426.64a11.14,11.14,0,1,1,22.29,0A244.34,244.34,0,0,1,247.38,671Z"/></g></g></svg>